<svg width="71" height="50" viewBox="0 0 71 50" fill="none" xmlns="http://www.w3.org/2000/svg">
<path d="M11.9345 1.17419H59.0656V48.3053H11.9345V1.17419Z" fill="#2F9690"/>
<path d="M54.3034 47.1588L55.0859 47.1462C52.5542 47.1379 49.8928 47.1776 47.2712 47.2257C49.1731 47.0939 51.1922 46.9684 53.1987 46.891C54.203 46.8512 55.2031 46.824 56.1865 46.8136C56.4313 46.8115 56.6761 46.8094 56.9209 46.8094C57.0422 46.8094 57.1636 46.8094 57.2849 46.8094H57.3749H57.4105H57.4146L57.4314 46.8115C57.4795 46.8157 57.5297 46.824 57.5967 46.8387C57.6113 46.801 57.6302 46.755 57.6574 46.6922L57.6678 46.6671L57.6741 46.6545L57.6762 46.6504C57.6762 46.6483 57.6762 46.6504 57.6783 46.642L57.6804 46.6001C57.6887 46.4893 57.695 46.3805 57.7034 46.2717C57.7201 46.0541 57.7369 45.8386 57.7578 45.6251C57.8373 44.7757 57.9419 43.9764 58.0821 43.242C57.6385 42.7629 57.4314 37.2267 57.5402 37.1137C57.6218 35.9629 57.6887 34.7996 57.7431 33.6216C57.7118 34.4313 57.6762 35.239 57.6343 36.0382C57.6762 35.239 57.7118 34.4313 57.7431 33.6216C58.0884 26.1793 57.9377 18.0947 57.7662 9.72969C57.7494 8.79234 57.7306 7.53277 57.7138 6.06607C57.7055 5.33377 57.695 4.54916 57.6866 3.72898C57.6846 3.52393 57.6825 3.3168 57.6804 3.10757C57.6804 3.05526 57.6783 3.00295 57.6783 2.95064V2.87114V2.83138V2.82511C57.6762 2.80837 57.6762 2.79163 57.6741 2.77489C57.6699 2.71212 57.6636 2.64935 57.6594 2.58659C57.6113 2.59077 57.5632 2.59495 57.5151 2.59705C57.4921 2.59914 57.469 2.60123 57.4481 2.60332L57.4146 2.60542C57.3351 2.60542 57.2577 2.60751 57.1782 2.60751C56.5422 2.61588 55.9019 2.62215 55.2659 2.63052C53.9937 2.64726 52.7342 2.664 51.5416 2.67865C49.1584 2.71212 47.041 2.74769 45.6246 2.78535C44.9341 2.80209 44.2499 2.81674 43.5532 2.82929C44.706 2.78954 44.706 2.78954 45.861 2.74978C42.9611 2.63052 40.3331 2.51545 37.7889 2.44012C38.2367 2.37736 38.3162 2.31459 39.379 2.22671L38.0818 2.26856C36.8997 2.08443 34.1713 2.0928 32.8887 2.01539C33.1649 2.11163 32.1543 2.13046 31.263 2.14511L31.6166 2.08025C28.2334 2.12 24.3082 2.04259 21.2849 2.05305C20.8643 2.05305 20.5484 2.08862 20.3559 2.12209L17.4581 2.04677C17.6819 2.17649 15.054 2.15976 16.437 2.24136C15.6859 2.18905 14.9327 2.16603 14.1794 2.15139C13.9911 2.1472 13.8049 2.14511 13.6166 2.14093C13.535 2.13883 13.4534 2.13465 13.3697 2.13256C13.2107 2.12628 13.0517 2.12209 12.8822 2.11163C12.8738 2.24554 12.8634 2.38154 12.8508 2.52172C12.8445 2.59286 12.8362 2.664 12.8257 2.73723L12.8194 2.79372L12.8152 2.82092C12.8152 2.82301 12.8132 2.83557 12.8132 2.84603L12.8111 2.87532C12.8048 2.95483 12.8006 3.03434 12.7943 3.11384C12.7755 10.5059 12.6772 18.3709 12.4596 26.014L12.4114 25.8278C12.3257 28.5039 12.0704 30.8619 12.1562 34.1154C11.9846 36.4379 11.8925 39.7416 11.6226 40.6643C11.585 43.3445 11.4511 44.4137 11.3799 47.0416C11.246 46.3637 11.2188 49.5942 11.1142 48.3012C10.928 46.5583 11.087 46.4621 10.9364 44.9828L10.9803 45.0267C10.7794 38.1222 10.6644 31.2071 10.6037 24.2084C10.7167 19.5384 10.6246 14.4729 10.6581 9.6167C10.6706 8.22533 10.6874 6.80256 10.7041 5.38399C10.7146 4.6747 10.7229 3.96541 10.7334 3.2624C10.7355 3.17452 10.7355 3.08664 10.7376 2.99877C10.7397 2.88788 10.7397 2.77908 10.7418 2.67028C10.7439 2.36899 10.7481 2.06979 10.7501 1.77059C10.7564 1.17638 10.7606 0.586349 10.7669 0.000505828C11.2983 0.00469042 11.8256 0.0109673 12.3487 0.0151519C12.6081 0.0172442 12.8675 0.0214288 13.1249 0.0235211C13.2525 0.0256134 13.3823 0.0256134 13.5099 0.0277057C13.5601 0.0277057 13.6082 0.029798 13.6584 0.029798C13.6961 0.029798 13.7338 0.0318903 13.7714 0.0318903C14.3719 0.0423518 14.964 0.0549055 15.5436 0.065367C16.7027 0.0883823 17.8158 0.11349 18.862 0.138597C19.9332 0.176259 20.7032 0.065367 21.6154 0.00259809C25.7394 0.0632747 30.9868 0.0172442 35.6401 0.0904746C35.5522 0.0904746 35.4685 0.0925669 35.4121 0.0946592C37.8831 0.117674 39.7347 -0.0204172 42.1493 0.00259809C42.1367 0.0402594 42.5112 0.0423518 42.6932 0.0632747C42.9025 -0.0246017 46.4552 0.0674593 50.0602 0.16789C51.8638 0.218105 53.6799 0.272504 55.0985 0.305981C55.8078 0.32272 56.4187 0.335273 56.8769 0.339458C56.992 0.339458 57.0966 0.34155 57.1929 0.34155C57.241 0.34155 57.2849 0.34155 57.3289 0.34155C57.377 0.34155 57.423 0.34155 57.4649 0.34155C57.6866 0.339458 57.8436 0.335273 57.9252 0.328996C58.3018 0.337366 58.6889 0.345735 59.0822 0.349919C59.3542 0.347827 59.6283 0.343643 59.9024 0.34155C59.9087 0.801856 59.9149 1.26216 59.9233 1.72247C59.9275 1.95471 59.9317 2.18905 59.9359 2.42129L59.9421 2.7728L59.9442 2.85021L59.9463 2.9088L59.9505 3.02387C59.9673 3.6411 59.9882 4.25833 60.0091 4.87556C60.0551 6.10792 60.0991 7.33191 60.143 8.53499C60.2309 10.9411 60.3041 13.2573 60.2895 15.3663C60.2058 16.3162 60.1325 17.3854 60.0384 18.1847C60.1137 18.9588 59.9673 19.1074 59.9882 20.0384C60.3439 22.4048 60.1953 23.7899 60.0698 22.568C60.0217 24.5139 60.053 26.4681 60.0405 28.1963C60.0154 28.9976 59.9882 29.7948 59.9568 30.6045C59.9275 31.2908 59.9798 31.6737 60.0635 32.021C60.0133 33.7785 60.1012 33.2618 60.1367 35.103C60.2602 35.5486 59.9401 39.7249 59.9777 40.2479L59.9965 39.9466C60.0175 42.0787 60.2581 43.4931 60.2685 45.577C60.2727 45.8009 60.2748 46.0248 60.279 46.2486C60.2811 46.3616 60.2811 46.4746 60.2832 46.5876C60.2853 46.7696 60.2853 46.9496 60.2874 47.1316C60.2916 47.9225 60.2957 48.7196 60.2999 49.5273C59.2705 49.5294 58.2327 49.5335 57.195 49.5356C56.5652 49.5356 55.9354 49.5377 55.3035 49.5377C54.0419 49.5356 52.7781 49.5335 51.5311 49.5315C49.035 49.5252 46.5954 49.5189 44.3273 49.5377C44.275 49.408 45.5095 49.567 45.5722 49.3934C42.4087 49.4164 39.22 49.5775 36.0293 49.5984C35.4539 49.634 34.7488 49.6988 34.4873 49.7407C33.4683 49.7888 33.8847 49.6779 33.1377 49.6947L33.0373 49.8118C31.9451 49.7156 31.443 49.9415 30.4136 49.8934C30.3592 49.8453 29.9846 49.839 29.6185 49.8432C29.5997 49.9687 28.4949 49.8348 28.5472 49.9478L28.5368 49.9395C28.3171 49.9415 28.1602 49.9332 27.8902 49.9541C27.4718 49.9102 23.555 49.5691 23.1303 49.5168L22.9336 49.5377C22.3478 49.5335 22.0967 49.4415 22.4398 49.4185L21.718 49.4247L21.8017 49.4331L21.084 49.4394C20.9522 49.4499 20.8015 49.5084 21.0066 49.5628C20.5986 49.5189 20.1425 49.4959 19.7345 49.5189C20.8664 49.4415 22.2745 49.3327 23.4588 49.2071C22.9713 49.1653 22.0925 49.2302 21.5652 49.2176C20.9355 49.2992 19.6403 49.3703 18.6318 49.4268C18.4101 49.4206 18.2573 49.2804 17.7552 49.3411C17.5104 49.4373 17.1881 49.3369 16.7697 49.408C17.2488 49.4582 17.7196 49.4352 18.205 49.431C18.1213 49.544 17.0208 49.5084 16.6358 49.5398C16.4558 49.5043 15.5164 49.5419 14.9264 49.5105C15.1837 49.6193 14.4493 49.5796 14.0999 49.6382C13.7024 49.6507 13.4471 49.6068 13.6082 49.5691C13.4806 49.4499 15.1921 49.498 14.6376 49.3745C14.4912 49.431 13.7128 49.4122 13.2923 49.4059C13.2881 49.3411 13.5789 49.3578 13.3069 49.295C12.8404 49.3097 12.3466 49.2323 12.0788 49.2992C12.1666 49.3159 12.3591 49.3055 12.4951 49.3034C11.8884 49.3097 15.7884 49.7239 15.0017 49.6863C15.2067 49.6298 11.541 49.3034 11.9469 49.2992C12.3173 49.2678 11.6812 49.182 12.0641 49.1611L12.4888 49.2385C13.0119 49.2134 13.2274 49.1004 13.0433 49.0565C12.1645 49.067 15.5373 49.498 14.7862 49.431L15.0917 49.3996C14.7736 49.3578 13.9242 49.3201 13.5957 49.3892C13.5936 49.3264 13.1647 49.3034 12.809 49.2804L12.6834 49.2908C12.3173 49.2595 11.8026 49.2741 12.0411 49.1904C14.1941 49.2009 10.6246 48.5418 12.7106 48.5041C11.8361 48.6443 13.0056 48.6485 13.9221 48.6652C14.0099 48.6171 14.42 48.5481 15.0791 48.5104C15.6503 48.5209 15.416 48.5627 15.5248 48.5983C15.8407 48.5669 16.4475 48.5397 16.368 48.4665C16.8136 48.5543 17.0793 48.41 17.615 48.4414C18.0857 48.4832 17.5836 48.479 17.9163 48.523C18.6235 48.5146 19.6131 48.502 20.1759 48.4832C20.3935 48.4142 21.0568 48.2907 20.5735 48.1819C19.5022 48.1966 20.9815 48.3577 19.8663 48.3347C20.3454 48.1756 18.8787 48.2907 18.6758 48.1715C19.0315 48.1003 19.7512 48.0982 20.3538 48.1192L20.2324 48.1401C20.7618 48.161 21.8247 48.1945 22.4001 48.1087C22.2641 48.0522 22.5151 48.0104 22.126 47.9978L22.8562 47.9873C22.9482 48.0041 23.0445 48.0229 22.8332 48.0355C23.1784 48.0794 23.5236 48.0543 23.7873 48.0208C23.8668 47.9622 27.6747 48.2698 27.5555 48.2321C28.0827 48.2342 28.2104 48.1443 28.723 48.2049C28.7355 48.2175 28.428 48.2112 27.9698 48.1945C27.5115 48.1777 26.9027 48.1526 26.3127 48.1254C25.1347 48.071 24.0362 48.0145 24.3857 48.0229C24.8355 47.958 30.3508 48.3179 30.6793 48.207C31.0684 48.2112 31.5392 48.2238 31.4492 48.2844C32.1083 48.2552 31.2526 48.1694 31.7212 48.115C31.7317 48.1254 31.6836 48.1443 31.8321 48.1422L32.2841 48.0668C33.3072 48.1589 34.8095 48.0396 35.8807 48.161C35.5711 48.0961 35.2175 47.9832 34.527 47.9246L34.4057 47.956C34.3073 47.9371 33.7403 47.9162 33.757 47.8576C34.4119 47.8179 34.9727 47.8283 35.6631 47.8869C35.7908 47.8702 35.9393 47.8555 36.0377 47.8388C36.0356 47.8472 36.0251 47.8534 36.0272 47.8618C36.2532 47.8241 36.228 47.8179 36.1464 47.7948C36.136 47.7907 36.1234 47.7865 36.0983 47.7823C36.5084 47.6065 38.6698 47.8932 39.8666 47.8032C40.2181 47.8283 39.9 47.8325 40.3394 47.866C41.5613 47.7969 42.4045 47.7425 43.6829 47.7028C44.0909 47.7781 44.1223 47.8074 43.6306 47.8869L44.5951 47.8618C43.7164 47.6609 46.3987 47.6693 45.43 47.4684C45.7124 47.4224 46.2899 47.4141 46.8318 47.4454C46.8862 47.4956 46.972 47.5772 47.652 47.5772C48.5977 47.5103 48.3738 47.5354 49.1564 47.4705C49.3426 47.4057 49.0538 47.3785 49.0873 47.3262C50.2967 47.4099 50.1418 47.1839 51.2842 47.1964C51.9977 47.2153 53.41 47.2236 53.4435 47.3387C54.3997 47.3366 54.3996 47.2529 54.3034 47.1588Z" fill="#2F9690"/>
<path d="M71 48.3056H49.6439L50.0624 37.2373C50.0624 36.9318 50.0519 36.6285 50.0331 36.3293C49.8343 33.1657 48.602 30.2825 46.6708 28.0103C44.2416 25.1543 40.7035 23.267 36.7219 23.0181C36.4206 22.9992 36.1172 22.9888 35.8138 22.9888C35.5105 22.9888 35.205 22.9992 34.9058 23.0181C30.9241 23.2691 27.3882 25.1543 24.9569 28.0103C23.0257 30.2804 21.7934 33.1636 21.5946 36.3293C21.5758 36.6305 21.5653 36.9318 21.5653 37.2373L21.9838 48.3056H1.87525e-06" fill="white"/>
<path d="M2.55884 47.184C3.48782 47.2217 4.34566 47.274 5.08633 47.3493C9.0868 47.1233 11.1142 47.6569 15.2549 47.5502C16.5207 47.5522 17.661 47.5669 18.7553 47.5815C19.3035 47.5878 19.8391 47.5941 20.3727 47.6004C20.5066 47.6025 20.6405 47.6025 20.7744 47.6045C20.8351 47.6045 20.8936 47.6066 20.9543 47.6066C21.0547 47.6087 21.1573 47.6087 21.2598 47.6087C21.2556 47.5167 21.2514 47.4225 21.2451 47.3284C21.2431 47.2823 21.2389 47.2342 21.2368 47.1861C21.2305 47.0689 21.2242 46.9518 21.2179 46.8346C21.1907 46.322 21.1594 45.7947 21.1196 45.2423C21.3498 44.6586 21.2619 42.9408 21.1468 41.0368C21.0882 40.0848 21.0234 39.0889 20.9878 38.1641C20.9794 37.934 20.9711 37.7059 20.9669 37.4862C20.9648 37.4318 20.9648 37.3774 20.9627 37.323V37.2833V37.2623C20.9627 37.2561 20.9627 37.2498 20.9627 37.2414C20.9627 37.21 20.9648 37.1786 20.9648 37.1473C20.969 37.0364 20.9731 36.9276 20.9794 36.8209C20.9857 36.7141 20.9941 36.6095 21.0045 36.5091C21.015 36.4087 21.0255 36.3082 21.0422 36.212C21.0715 36.0195 21.1029 35.8396 21.1384 35.6722C21.1573 35.5592 21.174 35.4504 21.1928 35.3458C21.2012 35.2935 21.2117 35.2412 21.22 35.191C21.2284 35.1407 21.2368 35.0905 21.2493 35.0424C21.2933 34.8478 21.3351 34.6721 21.377 34.513C21.423 34.3561 21.469 34.218 21.5088 34.103C21.5297 34.0444 21.5485 33.9921 21.5674 33.946C21.5862 33.9 21.605 33.8603 21.6239 33.8247C21.6929 33.6887 21.7389 33.6489 21.7494 33.7263C21.7557 33.7661 21.7536 33.8331 21.741 33.9335C21.7368 33.9586 21.7347 33.9858 21.7327 34.0151C21.7306 34.0444 21.7264 34.0758 21.7222 34.1092C21.7138 34.1762 21.7034 34.2515 21.6929 34.3352C21.7096 34.2599 21.7243 34.1887 21.7389 34.1176C21.7536 34.0486 21.7661 33.9816 21.7829 33.9188C21.8142 33.7912 21.8435 33.674 21.8687 33.5673C21.8812 33.5129 21.8938 33.4606 21.9042 33.4104C21.9168 33.3602 21.9293 33.3142 21.9419 33.2681C21.9649 33.1761 21.9858 33.0924 22.0046 33.015C22.013 32.9752 22.0235 32.9396 22.0319 32.902C22.0402 32.8664 22.0486 32.8308 22.057 32.7974C22.0737 32.7304 22.0904 32.6697 22.1051 32.6112C22.1344 32.494 22.1574 32.3915 22.1804 32.291C22.2055 32.1927 22.2348 32.0964 22.2641 31.9939C22.2787 31.9416 22.2955 31.8893 22.3143 31.8328C22.3331 31.7763 22.352 31.7156 22.3792 31.655C22.4294 31.5294 22.4901 31.3872 22.5654 31.2177C22.6051 31.134 22.6512 31.044 22.7014 30.9457C22.7265 30.8976 22.7537 30.8473 22.7809 30.7929C22.7955 30.7657 22.8081 30.7406 22.8227 30.7113C22.8311 30.6967 22.8374 30.6841 22.8458 30.6695C22.8541 30.6549 22.8625 30.6423 22.8709 30.6277C22.829 30.6716 22.7934 30.7197 22.7558 30.7657L22.6407 30.9059L22.5256 31.0461L22.4691 31.1173C22.4503 31.1403 22.4315 31.1654 22.4147 31.1884C22.4231 31.1675 22.4294 31.1486 22.4378 31.1277C22.4461 31.1068 22.4545 31.088 22.4629 31.067C22.4796 31.0273 22.4963 30.9854 22.511 30.9436C22.5445 30.8599 22.5758 30.7762 22.6114 30.6904C22.6282 30.6486 22.6449 30.6046 22.6637 30.5607C22.6826 30.5189 22.7014 30.4749 22.7202 30.431C22.7579 30.3452 22.7976 30.2552 22.8395 30.1674C22.8604 30.1234 22.8813 30.0774 22.9022 30.0334C22.9253 29.9895 22.9483 29.9435 22.9713 29.8995C23.0194 29.8096 23.0675 29.7175 23.1198 29.6254C23.1701 29.5313 23.2286 29.4413 23.2872 29.3493C23.3458 29.2572 23.4086 29.163 23.4734 29.0689C23.5927 28.9434 23.7161 28.8199 23.8354 28.6965C23.8668 28.6651 23.894 28.6337 23.9275 28.6044L24.0216 28.5144L24.2099 28.3366C24.2309 28.3031 24.2518 28.2717 24.2727 28.2383C24.2832 28.2215 24.2936 28.2069 24.3041 28.1901C24.3145 28.1755 24.3271 28.1587 24.3376 28.1441C24.3815 28.0834 24.4254 28.0227 24.4694 27.9621C24.5573 27.8428 24.6409 27.7256 24.733 27.6189C24.7769 27.5645 24.823 27.5101 24.8669 27.4578C24.9129 27.4055 24.9569 27.3553 25.0029 27.303C25.0489 27.2528 25.0929 27.2026 25.1389 27.1544C25.1849 27.1063 25.231 27.0582 25.277 27.0122C25.6452 26.6376 26.0219 26.3154 26.4194 26.012C26.8169 25.7087 27.2333 25.422 27.6957 25.127C27.7543 25.0893 27.8129 25.0538 27.8714 25.0161C27.9007 24.9973 27.93 24.9785 27.9593 24.9596C27.9886 24.9408 28.02 24.922 28.0493 24.9031C28.11 24.8655 28.1706 24.8278 28.2334 24.7881C28.2962 24.7504 28.359 24.7127 28.4238 24.673C28.6791 24.5161 28.9532 24.3591 29.2461 24.1938C29.198 24.221 29.1561 24.2482 29.1164 24.2733C29.0766 24.2985 29.041 24.3215 29.0076 24.3424C28.9427 24.3842 28.8904 24.4177 28.8506 24.447C28.7711 24.5056 28.7377 24.5349 28.7377 24.5453C28.7377 24.5558 28.7711 24.5453 28.8276 24.5223C28.8548 24.5098 28.8883 24.4951 28.926 24.4784C28.9636 24.4617 29.0055 24.4428 29.0515 24.424C29.2294 24.3424 29.4553 24.2482 29.6269 24.1855C29.8005 24.1269 29.9198 24.0976 29.8905 24.1499C29.9324 24.1206 29.993 24.0871 30.0642 24.0474C30.1353 24.0097 30.219 23.9637 30.3069 23.9197C30.3969 23.8758 30.491 23.8319 30.5852 23.7858C30.6814 23.744 30.7756 23.7022 30.8613 23.6624C30.9053 23.6415 30.9471 23.6247 30.9869 23.608C31.0266 23.5913 31.0643 23.5745 31.0978 23.5599C31.1668 23.5306 31.2212 23.5055 31.2568 23.4866C31.2924 23.4699 31.3091 23.4574 31.3007 23.4553C31.2924 23.4532 31.2547 23.4553 31.1877 23.472C31.7192 23.2774 32.259 23.1435 32.7842 23.0494C33.3093 22.9552 33.8178 22.9029 34.2969 22.8715C34.3576 22.8673 34.4162 22.8631 34.4747 22.859C34.5333 22.8548 34.5919 22.8527 34.6505 22.8506C34.7656 22.8464 34.8806 22.838 34.9915 22.8359C35.2154 22.8297 35.4288 22.8213 35.6339 22.815C36.0419 22.8025 36.4122 22.7878 36.7365 22.746C36.8725 22.769 37.0106 22.792 37.1466 22.8171L37.3496 22.8569C37.4165 22.8694 37.4856 22.882 37.5525 22.8987C37.8977 22.9657 38.2262 23.0305 38.5422 23.0933C38.6217 23.1079 38.6991 23.1268 38.7765 23.1414C38.8539 23.1582 38.9313 23.1707 39.0087 23.1874C39.1615 23.2209 39.3142 23.2502 39.4649 23.2837C39.7662 23.3486 40.0633 23.4218 40.3625 23.5013C40.6596 23.5871 40.963 23.677 41.2663 23.7921C41.3103 23.8444 41.3542 23.8946 41.3961 23.949C41.4923 23.9972 41.5969 24.0495 41.7099 24.1039C41.7664 24.1332 41.825 24.1604 41.8836 24.1917C41.9421 24.221 42.0049 24.2503 42.0656 24.2838C42.189 24.3487 42.3188 24.4114 42.4464 24.4805C42.5113 24.514 42.5761 24.5495 42.641 24.583C42.7058 24.6186 42.7707 24.6541 42.8356 24.6897C42.9653 24.7588 43.0929 24.8341 43.2184 24.901C43.3419 24.9722 43.4632 25.0412 43.5783 25.1061C43.6913 25.173 43.8022 25.2358 43.9026 25.2944C44.0031 25.353 44.0951 25.4053 44.1788 25.4513C44.6454 25.7672 45.112 26.148 45.5597 26.5749C45.7815 26.7904 46.0012 27.0143 46.2104 27.2507C46.3171 27.3679 46.4176 27.4892 46.5201 27.6106C46.5703 27.6712 46.6205 27.734 46.6686 27.7968C46.7189 27.8595 46.7691 27.9202 46.8151 27.9851C46.9093 28.1127 47.0034 28.2403 47.0997 28.368C47.1896 28.4998 47.2775 28.6316 47.3654 28.7634C47.4114 28.8283 47.4512 28.8952 47.493 28.9643C47.5349 29.0312 47.5746 29.0982 47.6165 29.1651C47.6374 29.1986 47.6583 29.2321 47.6771 29.2656L47.7085 29.3158L47.7378 29.366C47.7755 29.435 47.8152 29.502 47.8529 29.569C48.1563 30.1109 48.4199 30.6549 48.6354 31.1884C48.6521 31.2198 48.6689 31.2512 48.6856 31.2805C48.694 31.2951 48.7024 31.3097 48.7086 31.3244C48.717 31.339 48.7233 31.3537 48.7296 31.3683C48.7568 31.4269 48.784 31.4834 48.8091 31.5357C48.8593 31.6424 48.9032 31.7408 48.943 31.8286C49.0162 32.0086 49.0685 32.1571 49.1104 32.2785C49.1208 32.3099 49.1292 32.3392 49.1397 32.3664C49.148 32.3956 49.1543 32.4228 49.1606 32.448C49.1731 32.5003 49.1836 32.5463 49.192 32.5923C49.2087 32.6802 49.2192 32.7555 49.2275 32.8308C49.2317 32.8685 49.2359 32.9041 49.2401 32.9417C49.2422 32.9794 49.2464 33.0191 49.2485 33.061C49.2547 33.1447 49.2652 33.2367 49.2819 33.3518C49.2861 33.3811 49.2903 33.4104 49.2966 33.4418C49.3008 33.4732 49.307 33.5067 49.3133 33.5401C49.3238 33.6092 49.3342 33.6866 49.3489 33.7703C49.3635 33.854 49.3803 33.9481 49.4012 34.0507C49.4179 34.1532 49.4368 34.2662 49.4577 34.3917C49.4765 34.4691 49.4995 34.5507 49.5184 34.6344C49.5351 34.7202 49.5518 34.8081 49.5686 34.9001C49.5853 34.9922 49.6 35.0842 49.6167 35.1805C49.6292 35.2767 49.6397 35.3751 49.6523 35.4755C49.6627 35.5759 49.6774 35.6764 49.6857 35.7768C49.692 35.8793 49.7004 35.9818 49.7088 36.0844L49.7192 36.2392C49.7234 36.2915 49.7276 36.3417 49.7276 36.394C49.7318 36.4965 49.736 36.5991 49.738 36.7016C49.7401 36.8041 49.7422 36.9045 49.7422 37.0029C49.7422 37.0531 49.7422 37.1012 49.7422 37.1493C49.7422 37.1724 49.7422 37.1933 49.7422 37.2163C49.7422 37.2414 49.7401 37.2644 49.7401 37.2895C49.7318 37.4841 49.7255 37.6703 49.7234 37.844C49.7171 38.1892 49.7234 38.48 49.7485 38.6809C49.7694 38.2269 49.8029 37.8712 49.8385 37.5615C49.8468 37.4841 49.8573 37.4109 49.8678 37.3377C49.872 37.3021 49.8782 37.2665 49.8824 37.2309C49.8866 37.1954 49.8908 37.1661 49.8929 37.1305C49.9075 36.9945 49.9201 36.8627 49.9305 36.7309C49.941 36.5991 49.9494 36.4652 49.9536 36.325C49.9556 36.1848 49.9536 36.0383 49.9494 35.8772C49.9473 35.7161 49.9264 35.5425 49.9054 35.35C49.8992 35.3018 49.8929 35.2516 49.8866 35.2014C49.8824 35.1763 49.8803 35.1512 49.8761 35.124C49.872 35.0989 49.8678 35.0717 49.8615 35.0466C49.8427 34.9399 49.8217 34.829 49.7987 34.7118C49.851 34.8897 49.851 34.7767 49.8238 34.534C49.8071 34.4126 49.782 34.2599 49.7548 34.0946C49.7485 34.0527 49.7422 34.0109 49.7339 33.9691C49.7255 33.9272 49.715 33.8833 49.7067 33.8414C49.6878 33.7556 49.6711 33.6678 49.6523 33.5841C49.6188 33.4146 49.5769 33.2535 49.5456 33.1196C49.5309 33.0526 49.5163 32.992 49.5058 32.9396C49.4953 32.8873 49.4891 32.8455 49.4828 32.8162C49.4619 32.6948 49.5142 32.7534 49.6669 33.1614C49.7234 33.3874 49.7652 33.6217 49.8155 33.8561C49.8217 33.8854 49.828 33.9147 49.8343 33.9439C49.8406 33.9732 49.8448 34.0025 49.8489 34.0339C49.8594 34.0925 49.8699 34.1532 49.8782 34.2139C49.8887 34.2745 49.8992 34.3331 49.9096 34.3938C49.9138 34.4231 49.9201 34.4545 49.9243 34.4838C49.9305 34.513 49.9347 34.5444 49.9389 34.5737C49.9556 34.6951 49.9724 34.8164 49.9891 34.9399C49.9975 35.0006 50.0059 35.0612 50.0142 35.124C50.0205 35.1847 50.0268 35.2474 50.0331 35.3102C50.0456 35.4337 50.0582 35.5571 50.0728 35.6826C50.0833 35.8082 50.0896 35.9337 50.1 36.0593C50.1084 36.1848 50.1188 36.3103 50.123 36.438C50.1293 36.5635 50.1314 36.6911 50.1335 36.8188C50.1356 36.9464 50.1377 37.0719 50.1356 37.2017C50.1314 37.3293 50.1251 37.4548 50.1188 37.5824C50.0979 38.0909 50.077 38.5993 50.0561 39.1056C49.9745 41.1331 49.895 43.1229 49.7234 44.8134C49.8134 44.7318 49.8427 45.1691 49.8385 45.8428C49.8364 46.1797 49.8259 46.5772 49.8113 46.9978C49.8071 47.0961 49.8029 47.1966 49.7987 47.297C49.7945 47.3932 49.7904 47.4895 49.7862 47.5878C49.7757 47.7845 49.7673 47.9833 49.7569 48.1778C49.9536 48.182 50.146 48.1841 50.3344 48.1883C50.5268 48.1925 50.7131 48.1967 50.8888 48.2009C51.2696 48.2092 51.6044 48.2176 51.8534 48.2218L51.9496 48.1527C53.228 48.1172 54.1737 48.1004 56.2053 48.1862C58.6345 48.205 61.0323 48.249 63.0827 48.1004C66.104 47.9142 69.7007 48.2009 70.9958 48.3766C67.3008 48.6047 63.8339 48.2239 61.0929 48.6486C63.6539 48.5754 63.8276 48.6716 65.7943 48.8034L64.7566 48.8892L65.6018 48.9436C65.1708 49.0336 66.2881 49.1131 66.1584 49.2073L63.089 49.2052C64.7356 49.1236 63.6497 49.021 63.1685 48.9227L61.5846 48.9562C61.9529 48.9122 62.9279 48.8725 61.7771 48.816C61.1411 48.8348 60.2937 48.7804 59.5886 48.8453L60.8481 49.0441C58.9149 48.8871 57.4586 49.2742 55.5233 49.1194L54.9353 49.3265L53.1108 49.3119L53.3159 49.383L51.1273 49.4123C50.9872 49.4081 50.8595 49.4039 50.7444 49.3997C50.5331 49.3956 50.3448 49.3893 50.1753 49.383C49.8364 49.3704 49.579 49.3558 49.3782 49.3412C48.9744 49.3098 48.7944 49.2742 48.6542 49.2407C48.6668 49.18 48.6773 49.1236 48.6898 49.065C48.7086 48.6486 48.7275 48.2364 48.7442 47.8431C48.7589 47.5083 48.7735 47.1882 48.7881 46.8953C48.8049 46.5166 48.8133 46.2048 48.7986 46.0207L48.6333 47.071L48.6312 46.0939C48.648 46.7634 48.74 45.2842 48.7965 45.0457C48.8509 42.8592 48.8446 43.4974 48.7902 42.1248C48.9262 40.7083 48.8405 38.9675 49.0099 38.8901C49.0099 38.5658 49.012 38.2394 49.0141 37.913C49.0162 37.7498 49.0183 37.5845 49.0204 37.4193L49.0225 37.2958V37.233V37.2017V37.1828C49.0204 37.1096 49.0183 37.0343 49.0141 36.961C49.0078 36.8083 48.9995 36.6535 48.9869 36.5007L48.9785 36.3857L48.966 36.2706L48.943 36.0404C48.9346 35.963 48.9283 35.8877 48.92 35.8103L48.8886 35.5822C48.8781 35.5069 48.8677 35.4295 48.8572 35.3542L48.8488 35.2977C48.8467 35.2788 48.8425 35.26 48.8384 35.2412L48.8174 35.1282C48.8049 35.0529 48.7902 34.9775 48.7777 34.9022L48.7589 34.7892C48.7526 34.7516 48.7421 34.7139 48.7358 34.6783C48.7045 34.5298 48.671 34.3812 48.6396 34.2327C48.6019 34.0862 48.5643 33.9398 48.5266 33.7933C48.5099 33.7201 48.4848 33.6489 48.4638 33.5778C48.4429 33.5067 48.4199 33.4334 48.399 33.3623C48.2211 32.7932 48.0098 32.245 47.7734 31.7261L47.6018 31.2512L47.4114 30.7825C47.0536 30.2029 46.7147 29.7238 46.3883 29.2907C46.3464 29.2363 46.3067 29.184 46.2669 29.1296C46.246 29.1024 46.2272 29.0773 46.2063 29.0501C46.1853 29.025 46.1644 28.9998 46.1435 28.9747C46.0619 28.8743 45.9803 28.7739 45.9029 28.6734C45.8631 28.6232 45.8213 28.5772 45.7815 28.527C45.7397 28.4789 45.702 28.4307 45.6602 28.3826C45.6183 28.3345 45.5786 28.2885 45.5367 28.2403C45.4949 28.1922 45.4551 28.1462 45.4112 28.1002C45.0743 27.7277 44.7207 27.3679 44.3044 26.9975C44.252 26.9515 44.1976 26.9055 44.1432 26.8594C44.116 26.8364 44.0888 26.8134 44.0616 26.7883C44.0344 26.7653 44.0052 26.7423 43.978 26.7192C43.9215 26.6732 43.8629 26.6272 43.8043 26.5791C43.7436 26.533 43.6829 26.487 43.6223 26.4389C43.3733 26.2527 43.1055 26.0602 42.8042 25.8719L42.9674 26.0309C42.5552 25.717 42.1242 25.4241 41.6743 25.1563C41.1806 24.9429 40.7579 24.7734 40.3646 24.6249C39.9712 24.4763 39.6092 24.3487 39.2305 24.2315C38.8518 24.1164 38.4543 24.0139 37.9961 23.9386C37.5379 23.8633 37.0148 23.813 36.3871 23.8193C35.7134 23.8089 35.1317 23.834 34.6275 23.8695C34.1232 23.903 33.6922 23.947 33.3177 23.9867C32.939 24.0265 32.6189 24.0578 32.3364 24.0871C32.1941 24.0997 32.0602 24.1143 31.9347 24.1227C31.9033 24.1248 31.8719 24.1269 31.8405 24.129C31.8092 24.1311 31.7799 24.1353 31.7485 24.1373C31.6878 24.1415 31.6292 24.1478 31.5727 24.1499C31.4911 24.1687 31.4095 24.1918 31.3258 24.2148C31.2421 24.2399 31.1585 24.2629 31.0748 24.2922C30.9911 24.3194 30.9074 24.3487 30.8216 24.3801C30.7379 24.4114 30.6521 24.4449 30.5684 24.4805C30.2316 24.6207 29.8947 24.7839 29.5704 24.9638C29.2482 25.1437 28.9385 25.3383 28.6498 25.5308C28.5786 25.5789 28.5075 25.6271 28.4385 25.6752C28.3694 25.7233 28.3025 25.7714 28.2355 25.8196C28.202 25.8426 28.1686 25.8656 28.1372 25.8886C28.1058 25.9116 28.0723 25.9367 28.0409 25.9597C27.9782 26.0058 27.9154 26.0518 27.8547 26.0936C27.9112 26.0602 27.9677 26.0288 28.0263 25.9974C28.0828 25.966 28.1393 25.9325 28.1978 25.9032L28.3715 25.8133L28.4573 25.7672C28.4866 25.7526 28.5159 25.738 28.5452 25.7233C28.2836 25.9242 28.0263 26.1313 27.7815 26.351C27.6936 26.4117 27.6141 26.4724 27.5388 26.5288C27.5011 26.5581 27.4635 26.5853 27.4279 26.6125C27.3923 26.6397 27.3588 26.6669 27.3254 26.6941C27.2584 26.7464 27.1956 26.7967 27.1371 26.8469C27.0785 26.8971 27.022 26.9431 26.9697 26.9892C26.9153 27.0352 26.8651 27.0812 26.8169 27.1251C26.7688 27.1691 26.7207 27.213 26.6726 27.2549C26.5805 27.3427 26.4905 27.4285 26.3985 27.5164C26.3524 27.5624 26.3064 27.6064 26.2583 27.6545C26.2353 27.6775 26.2102 27.7026 26.1851 27.7256C26.16 27.7507 26.1369 27.7759 26.1118 27.801C26.0616 27.8512 26.0093 27.9056 25.9549 27.9621C25.9005 28.0186 25.844 28.0792 25.7854 28.142C25.7248 28.2048 25.6641 28.2738 25.5992 28.345C25.5657 28.3805 25.5323 28.4182 25.4988 28.4559C25.4653 28.4956 25.4297 28.5354 25.3942 28.5751C25.323 28.6567 25.2456 28.7446 25.164 28.8366C25.0866 28.9329 25.0029 29.0333 24.915 29.14C24.8878 29.1798 24.8606 29.2174 24.8334 29.2551C24.8062 29.2928 24.7832 29.3304 24.7581 29.3681C24.71 29.4413 24.6619 29.5125 24.6158 29.5815C24.5217 29.7154 24.4443 29.8472 24.3669 29.9644C24.3292 30.023 24.2915 30.0795 24.256 30.1339C24.2371 30.1611 24.2225 30.1883 24.2057 30.2155C24.189 30.2427 24.1744 30.2678 24.1576 30.2929C24.0949 30.3954 24.0363 30.4875 23.9798 30.5712C23.9505 30.613 23.9275 30.6549 23.9024 30.6946C23.8773 30.7344 23.8542 30.772 23.8312 30.8076C23.7852 30.8787 23.7413 30.9457 23.6973 31.0043C23.6534 31.0629 23.6178 31.1193 23.5822 31.1717C23.5467 31.2219 23.5111 31.27 23.4776 31.3139C23.4441 31.3579 23.4107 31.3976 23.3793 31.4353C23.3479 31.4729 23.3144 31.5106 23.2872 31.5462C23.2286 31.6194 23.1701 31.6884 23.1094 31.7659C23.0801 31.8035 23.0487 31.8454 23.0173 31.8893C23.0006 31.9102 22.9859 31.9332 22.9692 31.9563C22.9545 31.9793 22.9378 32.0044 22.9232 32.0316C22.8604 32.1362 22.7914 32.2576 22.716 32.4061C22.7056 32.4354 22.6993 32.4668 22.6909 32.4961L22.6679 32.586L22.6198 32.7681L22.5717 32.948C22.5633 32.9773 22.557 33.0087 22.5507 33.038L22.5298 33.13L22.4482 33.4941C22.4419 33.5234 22.4357 33.5548 22.4315 33.5862L22.4147 33.6782L22.3813 33.8623L22.3478 34.0444C22.3415 34.0758 22.3373 34.1051 22.3331 34.1364L22.3206 34.2285L22.2704 34.5967L22.2641 34.6428L22.2599 34.6888L22.2515 34.7809L22.2348 34.965C22.2243 35.0884 22.2097 35.2098 22.2055 35.3332L22.1679 35.2621C22.1386 35.3688 22.1134 35.4671 22.0883 35.5592C22.0758 35.6052 22.0653 35.6492 22.0528 35.6931C22.0465 35.714 22.0423 35.735 22.036 35.7559C22.0318 35.7768 22.0277 35.7977 22.0235 35.8186C21.99 35.9818 21.9628 36.1241 21.9398 36.2622C21.9168 36.3982 21.9063 36.5279 21.8959 36.6639C21.8875 36.7999 21.8812 36.9422 21.8812 37.1033C21.8812 37.1221 21.8812 37.1431 21.8812 37.164C21.8812 37.1724 21.8812 37.1828 21.8812 37.1912V37.2058V37.2226C21.8833 37.2665 21.8854 37.3105 21.8875 37.3586C21.8917 37.4527 21.8979 37.5511 21.9042 37.6599C21.9168 37.8754 21.9293 38.1264 21.944 38.4215C21.9754 39.0136 22.0109 39.7898 22.0486 40.8611L21.9021 40.6686C22.1093 42.106 21.9168 42.7316 21.9942 44.5854C22.0046 44.9097 22.0528 45.4704 22.1072 46.1295C22.1197 46.2948 22.1344 46.4663 22.149 46.64C22.1553 46.7279 22.1616 46.8158 22.1699 46.9057C22.1741 46.9497 22.1762 46.9957 22.1804 47.0396C22.1846 47.0898 22.1867 47.1401 22.1909 47.1903C22.2202 47.6338 22.2453 48.0983 22.2641 48.5461C21.9042 48.5461 21.5443 48.544 21.2096 48.5335C21.1259 48.5314 21.0443 48.5273 20.9648 48.5252C20.925 48.5231 20.8853 48.521 20.8455 48.5189C20.8288 48.5189 20.8099 48.5168 20.7932 48.5168C20.7765 48.5147 20.7618 48.5147 20.7451 48.5126C20.6196 48.5042 20.4982 48.4938 20.3831 48.4812C17.1191 48.6193 15.5415 48.2071 12.7421 48.2301C11.0619 48.3348 9.86305 48.09 9.54293 48.3222L9.84631 48.3243L9.22071 48.5545L9.14539 48.3892C8.13481 48.4519 6.68066 48.3933 5.81445 48.5733L3.4669 48.272C4.04228 48.2992 4.68043 48.2825 5.32067 48.2636L5.25581 48.3097C5.86676 48.3138 7.3502 48.3494 8.05531 48.2845L7.20793 48.2301C8.18084 48.1904 7.36903 48.113 7.09703 48.0879C5.14492 48.1653 5.67636 48.0063 4.18664 47.9707C3.85188 47.9916 3.21163 48.0105 3.44806 48.0586C2.5693 48.0272 0.251033 48.1506 0.173618 47.9853C0.0982953 47.9937 0.0690072 48 -3.86192e-05 48.0084C0.292883 47.7468 1.28463 47.456 2.55884 47.184Z" fill="#2F9690"/>
<path d="M31.3028 44.4974C32.4285 44.4974 33.3428 43.5831 33.3428 42.4574V34.4021C33.3428 33.2764 32.4285 32.3621 31.3028 32.3621C30.1772 32.3621 29.2629 33.2764 29.2629 34.4021V42.4574C29.2629 43.5851 30.1772 44.4974 31.3028 44.4974Z" fill="#2F9690"/>
<path d="M30.5914 44.0059C30.4951 43.9662 30.4031 43.918 30.3173 43.8615C30.1185 43.7297 29.9449 43.554 29.8151 43.3468C29.6875 43.1418 29.6017 42.9075 29.5703 42.6647C29.562 42.6041 29.5578 42.5434 29.5557 42.4806V42.4576V42.4304V42.376L29.5536 42.2672C29.5515 42.1228 29.5515 41.9785 29.5494 41.8341C29.5473 41.5454 29.5452 41.2545 29.5431 40.9616C29.5369 39.7899 29.5306 38.5869 29.5118 37.321C29.4929 36.4339 29.4887 35.4861 29.4887 34.5362V34.4462V34.4023L29.4908 34.3625C29.4908 34.3102 29.495 34.2579 29.5013 34.2035C29.5118 34.0989 29.5348 33.9943 29.5641 33.8938C29.6226 33.693 29.7168 33.5026 29.8402 33.3352C29.9637 33.1678 30.1122 33.0234 30.2796 32.9084C30.447 32.7954 30.6311 32.7075 30.8194 32.6573C30.5956 32.7221 30.3842 32.8289 30.2022 32.9753C30.0181 33.1197 29.8633 33.2996 29.7482 33.5047C29.6331 33.7076 29.5578 33.9336 29.5285 34.1658C29.5243 34.1951 29.5201 34.2244 29.5201 34.2537C29.518 34.283 29.5159 34.3123 29.5159 34.3416C29.5138 34.396 29.5159 34.4671 29.5159 34.5341C29.5159 34.668 29.518 34.7998 29.518 34.9337C29.5243 36.0008 29.5306 37.0741 29.539 38.1391C29.5473 39.2062 29.5599 40.267 29.5766 41.3152C29.5808 41.5767 29.5871 41.8383 29.5913 42.0977C29.5934 42.1626 29.5934 42.2275 29.5954 42.2923L29.5975 42.3886V42.4367V42.4597L29.5996 42.4806C29.6038 42.5894 29.6185 42.6961 29.6436 42.8007C29.6938 43.01 29.7817 43.2066 29.903 43.3782C30.0244 43.5498 30.1771 43.6962 30.3487 43.8092C30.2252 43.6962 30.1102 43.5561 30.0076 43.3929C29.9072 43.2297 29.8235 43.0414 29.7733 42.8279L29.7607 42.7798L29.7503 42.7317C29.744 42.7003 29.7398 42.6668 29.7335 42.6334C29.7294 42.5999 29.7273 42.5685 29.7231 42.535L29.721 42.4848L29.7189 42.4597V42.4283C29.7168 42.2588 29.7147 42.0873 29.7126 41.9178C29.7084 41.5788 29.7063 41.2399 29.7022 40.903C29.6959 40.2272 29.6917 39.5577 29.6854 38.8881C29.6666 38.8881 29.6289 38.8881 29.6101 38.8881C29.6247 37.9382 29.6247 37.0051 29.6206 36.0782C29.6164 35.6158 29.6143 35.1534 29.6101 34.6952L29.608 34.5236V34.4378V34.4169V34.396V34.3604C29.6101 34.2642 29.6164 34.17 29.6352 34.0759C29.6708 33.8876 29.7356 33.7055 29.8319 33.5402C30.0223 33.2076 30.3298 32.9397 30.6897 32.7996C30.8697 32.7305 31.0621 32.6887 31.2567 32.6845C31.4513 32.6782 31.648 32.7054 31.8321 32.7661C32.2024 32.8853 32.533 33.1406 32.7423 33.4754C32.7946 33.5591 32.8406 33.6469 32.8762 33.7369C32.9117 33.829 32.941 33.9231 32.962 34.0194C32.9829 34.1156 32.9933 34.214 32.9975 34.3123V34.3855V34.4044V34.4274V34.4713C32.9954 34.5299 32.9954 34.5906 32.9933 34.6492C32.9829 34.5132 32.9682 34.5948 32.9557 34.622C32.9557 34.6303 32.9557 34.6408 32.9557 34.6492C32.9557 34.6408 32.9557 34.6324 32.9557 34.622C32.9494 34.6345 32.9452 34.6366 32.9431 34.6073C32.941 34.5927 32.941 34.5696 32.9389 34.5341C32.9389 34.5173 32.9389 34.4964 32.9368 34.4734C32.9368 34.4504 32.9368 34.4253 32.9368 34.396C32.9368 34.4253 32.9368 34.4504 32.9368 34.4734C32.9368 34.4964 32.9368 34.5152 32.9389 34.5341C32.9389 34.5676 32.941 34.5927 32.9431 34.6073C32.9473 34.6366 32.9515 34.6345 32.9557 34.622C32.9557 34.5634 32.9557 34.5048 32.9557 34.4462V34.4023V34.3667C32.9557 34.3437 32.9557 34.3186 32.9536 34.2956C32.9494 34.2014 32.9348 34.1072 32.9138 34.0173C32.872 33.8353 32.7967 33.6595 32.6962 33.5026C32.4954 33.1866 32.1815 32.946 31.8321 32.8289C31.4827 32.7096 31.0893 32.718 30.7441 32.8414C30.5726 32.9042 30.4094 32.9941 30.2671 33.1113C30.1248 33.2285 29.9993 33.3666 29.9051 33.5214C29.857 33.5988 29.8151 33.6804 29.7796 33.7662C29.744 33.8499 29.7168 33.9378 29.698 34.0277C29.677 34.1177 29.6645 34.2077 29.6603 34.2997C29.6582 34.3228 29.6582 34.3458 29.6582 34.3688V34.4023V34.4441V34.6136C29.6603 35.0655 29.6645 35.5195 29.6666 35.9757C29.675 36.8858 29.6812 37.8043 29.6896 38.7375C29.6812 37.2896 29.677 35.8543 29.675 34.4232V34.4064V34.3918V34.3646C29.675 34.3458 29.675 34.329 29.677 34.3102C29.6812 34.2746 29.6812 34.2391 29.6875 34.2035C29.6938 34.1324 29.7105 34.0633 29.7273 33.9922C29.7649 33.8541 29.8172 33.7202 29.8884 33.5967C30.0286 33.3477 30.2378 33.1364 30.4847 32.9941C30.7316 32.8477 31.0161 32.7745 31.3028 32.7724C31.4471 32.7724 31.5894 32.7912 31.7275 32.8268C31.8656 32.8644 31.9974 32.9188 32.1209 32.99C32.2443 33.0611 32.3573 33.1511 32.4598 33.2515C32.5602 33.354 32.6481 33.467 32.7192 33.5925C32.7904 33.716 32.8448 33.8499 32.8804 33.988C32.8971 34.057 32.9117 34.1282 32.9201 34.1993C32.9264 34.2349 32.9264 34.2704 32.9306 34.306C32.9327 34.3248 32.9306 34.3416 32.9327 34.3604V34.3876V34.4002V34.4169C32.9306 35.1367 32.9306 35.8564 32.9285 36.5824C32.9264 38.0324 32.9243 39.4949 32.9243 40.9784C32.9243 41.2315 32.9243 41.7379 32.9243 41.991L32.9431 42.3718L32.9473 42.466L32.9494 42.5434L32.9473 42.6208C32.9473 42.6459 32.9431 42.671 32.941 42.6982C32.9222 42.9033 32.8615 43.1041 32.7632 43.2862C32.6648 43.4703 32.5309 43.6356 32.3698 43.7695C32.2087 43.9034 32.0225 44.008 31.8237 44.0708C31.8802 44.077 31.8781 44.1084 31.8656 44.144C31.853 44.1817 31.8279 44.2214 31.8489 44.2423C31.8593 44.2528 31.8823 44.2591 31.9242 44.257C31.9346 44.257 31.9472 44.2549 31.9597 44.2528C31.9723 44.2507 31.9869 44.2465 32.0037 44.2444C32.0204 44.2402 32.0372 44.2361 32.056 44.2319C32.0748 44.2256 32.0937 44.2193 32.1167 44.211C32.2024 44.1796 32.3133 44.1273 32.4431 44.0352C32.4765 44.0143 32.5079 43.9871 32.5435 43.9599C32.577 43.9306 32.6125 43.9013 32.6481 43.8657C32.7192 43.7967 32.7925 43.7151 32.8615 43.6167C32.8762 43.6272 32.9076 43.6502 32.9222 43.6628C32.782 43.8699 32.6167 44.0373 32.4493 44.1691C32.3656 44.234 32.282 44.2905 32.2004 44.3407C32.1585 44.3637 32.1188 44.3888 32.079 44.4076C32.0393 44.4285 31.9995 44.4474 31.9618 44.4662C31.8091 44.5373 31.671 44.5834 31.558 44.6169C31.5015 44.6336 31.4534 44.6482 31.4116 44.6608C31.3697 44.6733 31.3362 44.6838 31.309 44.6964C31.2609 44.7173 31.2463 44.7403 31.2651 44.7612C31.2693 44.7654 31.2777 44.7717 31.286 44.7759C31.2965 44.7801 31.3049 44.7863 31.3216 44.7905C31.353 44.7989 31.3948 44.8093 31.4471 44.8156C31.5538 44.8282 31.7045 44.8303 31.9033 44.7968C32.0999 44.7612 32.3426 44.688 32.6063 44.5353C32.8992 44.3616 33.1712 44.1168 33.3762 43.8071C33.4788 43.6523 33.5666 43.4849 33.6336 43.305C33.7005 43.125 33.7466 42.9346 33.7696 42.7401C33.7759 42.6919 33.7779 42.6417 33.7821 42.5936C33.7821 42.5685 33.7842 42.5434 33.7842 42.5204V42.4827V42.4639V42.4492C33.7842 42.3676 33.7842 42.2839 33.7842 42.2023C33.7842 42.0371 33.7842 41.8697 33.7842 41.7002C33.7842 41.3612 33.7821 41.0181 33.7821 40.6687C33.7779 39.2752 33.7675 37.8211 33.7863 36.4276L33.7989 34.9086L33.801 34.5278V34.4336V34.4106V34.3813L33.7989 34.3228C33.7989 34.2851 33.7947 34.2453 33.7926 34.2077C33.7905 34.1888 33.7905 34.17 33.7884 34.1491L33.7821 34.0905C33.7445 33.7829 33.6482 33.4817 33.4997 33.2076C33.3511 32.9335 33.1503 32.6908 32.9117 32.492C32.6732 32.2932 32.397 32.1384 32.102 32.0401C31.807 31.9417 31.4932 31.8999 31.1856 31.9187C30.878 31.9354 30.5705 32.0129 30.2922 32.1426C29.9072 32.3204 29.5682 32.6008 29.3172 32.9481C29.0661 33.2954 28.9071 33.7139 28.8652 34.1428C28.8611 34.17 28.8611 34.1972 28.859 34.2244C28.8569 34.2516 28.8548 34.2788 28.8548 34.306L28.8527 34.3876V34.4085V34.4253V34.4588C28.8527 34.5487 28.8548 34.6387 28.8548 34.7308C28.8569 34.9107 28.8569 35.0927 28.859 35.2748C28.8611 35.6367 28.8652 36.0008 28.8673 36.3648C28.8799 37.8211 28.8924 39.2773 28.9301 40.6687C28.9343 40.9219 28.9343 41.2232 28.9322 41.5391C28.9301 41.6981 28.9301 41.8592 28.928 42.0224C28.928 42.104 28.9259 42.1856 28.9259 42.2651C28.9259 42.3049 28.9259 42.3446 28.9259 42.3865C28.9259 42.4262 28.9238 42.4639 28.9259 42.512C28.928 42.6961 28.9531 42.8761 28.9929 43.0414C29.0326 43.2067 29.0912 43.3594 29.1561 43.4912C29.2879 43.7569 29.4448 43.941 29.5515 44.0394C29.7022 44.1858 29.8005 44.2382 29.8486 44.2528C29.8988 44.2674 29.9009 44.2423 29.8905 44.2068C29.5327 43.9222 29.2691 43.5247 29.1414 43.0853C29.1247 43.0309 29.1121 42.9744 29.0996 42.92C29.0891 42.8635 29.0787 42.807 29.0724 42.7505C29.064 42.694 29.0619 42.6375 29.0556 42.5811C29.0535 42.5246 29.0515 42.466 29.0515 42.4158C29.0515 42.2086 29.0494 42.0015 29.0494 41.7943C29.0473 40.9658 29.0431 40.1414 29.041 39.3213C29.0284 38.3149 29.018 37.3085 29.0054 36.3021C28.9991 35.7978 28.9908 35.2957 28.9845 34.7914L28.9782 34.4148C28.9761 34.2725 28.9866 34.1282 29.0117 33.988C29.0598 33.7055 29.1603 33.4314 29.3088 33.1845C29.1665 33.4273 29.0661 33.6972 29.018 33.9733C28.9929 34.1114 28.9824 34.2537 28.9845 34.3939C28.9866 34.5194 28.9887 34.645 28.9908 34.7684C28.9991 35.2664 29.0075 35.7685 29.0138 36.2707C29.0263 37.2792 29.0347 38.296 29.0389 39.3213C29.0473 40.1393 29.0556 40.9595 29.064 41.7776L29.0703 42.3927V42.4702L29.0724 42.5539C29.0724 42.5811 29.0766 42.6103 29.0787 42.6375C29.0807 42.6647 29.0828 42.694 29.087 42.7212C29.0996 42.8321 29.1226 42.9409 29.1519 43.0476C29.2711 43.4766 29.5243 43.8636 29.8654 44.1461C29.8402 44.0749 29.8256 44.008 29.926 44.0457C29.926 44.0457 29.9323 44.0519 29.9428 44.0603C29.949 44.0645 29.9553 44.0708 29.9637 44.077C29.9721 44.0833 29.9804 44.0917 29.9909 44.098C30.0327 44.1314 30.0892 44.1754 30.1583 44.2193C30.175 44.2298 30.1918 44.2423 30.2106 44.2528C30.2294 44.2633 30.2482 44.2737 30.265 44.2842C30.3026 44.3072 30.3424 44.3239 30.378 44.3449C30.4156 44.3637 30.4533 44.3804 30.491 44.3951C30.5265 44.4097 30.56 44.4244 30.5914 44.4327C30.7169 44.4662 30.8257 44.4788 30.9157 44.4809C30.9387 44.4809 30.9596 44.4829 30.9805 44.4829C31.0015 44.4829 31.0203 44.4809 31.0391 44.4809C31.058 44.4788 31.0747 44.4788 31.0893 44.4767C31.1061 44.4746 31.1207 44.4725 31.1333 44.4704C31.1877 44.462 31.2274 44.4474 31.2525 44.4348C31.2777 44.4223 31.2881 44.4076 31.2881 44.393C31.2881 44.3637 31.2442 44.3365 31.173 44.3051C31.104 44.2737 31.0077 44.2361 30.9073 44.19C30.8174 44.1398 30.7065 44.0812 30.5914 44.0059Z" fill="#2F9690"/>
<path d="M39.6972 44.4974C40.8228 44.4974 41.7372 43.5831 41.7372 42.4574V34.4021C41.7372 33.2764 40.8228 32.3621 39.6972 32.3621C38.5715 32.3621 37.6572 33.2764 37.6572 34.4021V42.4574C37.6572 43.5851 38.5694 44.4974 39.6972 44.4974Z" fill="#2F9690"/>
<path d="M38.9859 44.0055C38.8896 43.9658 38.7975 43.9177 38.7118 43.8612C38.513 43.7294 38.3393 43.5536 38.2096 43.3465C38.082 43.1414 37.9962 42.9071 37.9648 42.6644C37.9564 42.6037 37.9523 42.543 37.9502 42.4803V42.4572V42.43V42.3756L37.9481 42.2668C37.946 42.1225 37.946 41.9781 37.9439 41.8337C37.9418 41.545 37.9397 41.2542 37.9376 40.9612C37.9313 39.7896 37.9251 38.5865 37.9062 37.3206C37.8874 36.4335 37.8832 35.4857 37.8832 34.5358V34.4458V34.4019L37.8853 34.3621C37.8853 34.3098 37.8895 34.2575 37.8958 34.2031C37.9062 34.0985 37.9292 33.9939 37.9585 33.8935C38.0171 33.6926 38.1113 33.5022 38.2347 33.3348C38.3582 33.1674 38.5067 33.0231 38.6741 32.908C38.8415 32.795 39.0256 32.7071 39.2139 32.6569C38.99 32.7218 38.7787 32.8285 38.5967 32.9749C38.4126 33.1193 38.2577 33.2993 38.1427 33.5043C38.0276 33.7073 37.9523 33.9332 37.923 34.1655C37.9188 34.1948 37.9146 34.2241 37.9146 34.2533C37.9125 34.2826 37.9104 34.3119 37.9104 34.3412C37.9083 34.3956 37.9104 34.4668 37.9104 34.5337C37.9104 34.6676 37.9125 34.7994 37.9125 34.9333C37.9188 36.0004 37.9251 37.0738 37.9334 38.1387C37.9418 39.2058 37.9543 40.2666 37.9711 41.3148C37.9753 41.5764 37.9815 41.8379 37.9857 42.0974C37.9878 42.1622 37.9878 42.2271 37.9899 42.2919L37.992 42.3882V42.4363V42.4593L37.9941 42.4803C37.9983 42.5891 38.0129 42.6958 38.038 42.8004C38.0883 43.0096 38.1761 43.2063 38.2975 43.3778C38.4188 43.5494 38.5716 43.6959 38.7431 43.8089C38.6197 43.6959 38.5046 43.5557 38.4021 43.3925C38.3017 43.2293 38.218 43.041 38.1678 42.8276L38.1552 42.7795L38.1447 42.7313C38.1385 42.6999 38.1343 42.6665 38.128 42.633C38.1238 42.5995 38.1217 42.5681 38.1175 42.5347L38.1155 42.4844L38.1134 42.4593V42.4279C38.1113 42.2585 38.1092 42.0869 38.1071 41.9174C38.1029 41.5785 38.1008 41.2395 38.0966 40.9027C38.0903 40.2269 38.0862 39.5573 38.0799 38.8878C38.0611 38.8878 38.0234 38.8878 38.0046 38.8878C38.0192 37.9379 38.0192 37.0047 38.015 36.0778C38.0108 35.6154 38.0087 35.153 38.0046 34.6948L38.0025 34.5232V34.4375V34.4165V34.3956V34.36C38.0046 34.2638 38.0108 34.1697 38.0297 34.0755C38.0652 33.8872 38.1301 33.7052 38.2263 33.5399C38.4167 33.2072 38.7243 32.9394 39.0842 32.7992C39.2641 32.7301 39.4566 32.6883 39.6512 32.6841C39.8458 32.6778 40.0425 32.705 40.2266 32.7657C40.5969 32.885 40.9275 33.1402 41.1367 33.475C41.189 33.5587 41.2351 33.6466 41.2706 33.7365C41.3062 33.8286 41.3355 33.9228 41.3564 34.019C41.3773 34.1153 41.3878 34.2136 41.392 34.3119V34.3852V34.404V34.427V34.4709C41.3899 34.5295 41.3899 34.5902 41.3878 34.6488C41.3773 34.5128 41.3627 34.5944 41.3501 34.6216C41.3501 34.63 41.3501 34.6404 41.3501 34.6488C41.3501 34.6404 41.3501 34.632 41.3501 34.6216C41.3439 34.6341 41.3397 34.6362 41.3376 34.6069C41.3355 34.5923 41.3355 34.5693 41.3334 34.5337C41.3334 34.517 41.3334 34.496 41.3313 34.473C41.3313 34.45 41.3313 34.4249 41.3313 34.3956C41.3313 34.4249 41.3313 34.45 41.3313 34.473C41.3313 34.496 41.3313 34.5149 41.3334 34.5337C41.3334 34.5672 41.3355 34.5923 41.3376 34.6069C41.3418 34.6362 41.346 34.6341 41.3501 34.6216C41.3501 34.563 41.3501 34.5044 41.3501 34.4458V34.4019V34.3663C41.3501 34.3433 41.3501 34.3182 41.3481 34.2952C41.3439 34.201 41.3292 34.1069 41.3083 34.0169C41.2665 33.8349 41.1911 33.6591 41.0907 33.5022C40.8898 33.1863 40.576 32.9457 40.2266 32.8285C39.8772 32.7092 39.4838 32.7176 39.1386 32.841C38.967 32.9038 38.8038 32.9938 38.6615 33.1109C38.5193 33.2281 38.3937 33.3662 38.2996 33.521C38.2515 33.5985 38.2096 33.6801 38.174 33.7658C38.1385 33.8495 38.1113 33.9374 38.0924 34.0274C38.0715 34.1173 38.059 34.2073 38.0548 34.2994C38.0527 34.3224 38.0527 34.3454 38.0527 34.3684V34.4019V34.4437V34.6132C38.0548 35.0652 38.059 35.5192 38.0611 35.9753C38.0694 36.8855 38.0757 37.804 38.0841 38.7371C38.0757 37.2893 38.0715 35.8539 38.0694 34.4228V34.4061V34.3914V34.3642C38.0694 34.3454 38.0694 34.3287 38.0715 34.3098C38.0757 34.2743 38.0757 34.2387 38.082 34.2031C38.0883 34.132 38.105 34.0629 38.1217 33.9918C38.1594 33.8537 38.2117 33.7198 38.2828 33.5964C38.423 33.3474 38.6323 33.1361 38.8791 32.9938C39.126 32.8473 39.4106 32.7741 39.6972 32.772C39.8416 32.772 39.9839 32.7908 40.122 32.8264C40.2601 32.8641 40.3919 32.9185 40.5153 32.9896C40.6388 33.0607 40.7517 33.1507 40.8543 33.2511C40.9547 33.3537 41.0426 33.4666 41.1137 33.5922C41.1849 33.7156 41.2393 33.8495 41.2748 33.9876C41.2916 34.0567 41.3062 34.1278 41.3146 34.1989C41.3209 34.2345 41.3209 34.2701 41.325 34.3056C41.3271 34.3245 41.325 34.3412 41.3271 34.36V34.3872V34.3998V34.4165C41.325 35.1363 41.325 35.856 41.3229 36.5821C41.3209 38.032 41.3188 39.4945 41.3188 40.978C41.3188 41.2312 41.3188 41.7375 41.3188 41.9907L41.3376 42.3715L41.3418 42.4656L41.3439 42.543L41.3418 42.6204C41.3418 42.6455 41.3376 42.6707 41.3355 42.6979C41.3167 42.9029 41.256 43.1038 41.1577 43.2858C41.0593 43.4699 40.9254 43.6352 40.7643 43.7691C40.6032 43.903 40.417 44.0076 40.2182 44.0704C40.2747 44.0767 40.2726 44.1081 40.2601 44.1436C40.2475 44.1813 40.2224 44.221 40.2433 44.242C40.2538 44.2524 40.2768 44.2587 40.3186 44.2566C40.3291 44.2566 40.3417 44.2545 40.3542 44.2524C40.3668 44.2503 40.3814 44.2462 40.3982 44.2441C40.4149 44.2399 40.4316 44.2357 40.4505 44.2315C40.4693 44.2252 40.4881 44.219 40.5111 44.2106C40.5969 44.1792 40.7078 44.1269 40.8375 44.0348C40.871 44.0139 40.9024 43.9867 40.938 43.9595C40.9714 43.9302 41.007 43.9009 41.0426 43.8654C41.1137 43.7963 41.1869 43.7147 41.256 43.6164C41.2706 43.6268 41.302 43.6498 41.3167 43.6624C41.1765 43.8695 41.0112 44.0369 40.8438 44.1687C40.7601 44.2336 40.6764 44.2901 40.5948 44.3403C40.553 44.3633 40.5132 44.3884 40.4735 44.4073C40.4337 44.4282 40.394 44.447 40.3563 44.4658C40.2036 44.537 40.0655 44.583 39.9525 44.6165C39.896 44.6332 39.8479 44.6479 39.806 44.6604C39.7642 44.673 39.7307 44.6834 39.7035 44.696C39.6554 44.7169 39.6407 44.7399 39.6596 44.7609C39.6638 44.765 39.6721 44.7713 39.6805 44.7755C39.691 44.7797 39.6993 44.786 39.7161 44.7901C39.7474 44.7985 39.7893 44.809 39.8416 44.8153C39.9483 44.8278 40.099 44.8299 40.2977 44.7964C40.4944 44.7609 40.7371 44.6876 41.0007 44.5349C41.2937 44.3612 41.5657 44.1164 41.7707 43.8068C41.8732 43.6519 41.9611 43.4846 42.0281 43.3046C42.095 43.1247 42.141 42.9343 42.1641 42.7397C42.1703 42.6916 42.1724 42.6414 42.1766 42.5932C42.1766 42.5681 42.1787 42.543 42.1787 42.52V42.4823V42.4635V42.4489C42.1787 42.3673 42.1787 42.2836 42.1787 42.202C42.1787 42.0367 42.1787 41.8693 42.1787 41.6998C42.1787 41.3609 42.1766 41.0177 42.1766 40.6683C42.1724 39.2749 42.162 37.8207 42.1808 36.4272L42.1933 34.9082L42.1954 34.5274V34.4333V34.4103V34.381L42.1933 34.3224C42.1933 34.2847 42.1892 34.245 42.1871 34.2073C42.185 34.1885 42.185 34.1697 42.1829 34.1487L42.1766 34.0901C42.1389 33.7826 42.0427 33.4813 41.8941 33.2072C41.7456 32.9331 41.5447 32.6904 41.3062 32.4916C41.0677 32.2929 40.7915 32.138 40.4965 32.0397C40.2015 31.9414 39.8876 31.8995 39.5801 31.9183C39.2725 31.9351 38.9649 32.0125 38.6867 32.1422C38.3017 32.3201 37.9627 32.6004 37.7116 32.9477C37.4606 33.2951 37.3016 33.7135 37.2597 34.1425C37.2555 34.1697 37.2555 34.1968 37.2534 34.224C37.2513 34.2512 37.2492 34.2784 37.2492 34.3056L37.2472 34.3872V34.4082V34.4249V34.4584C37.2472 34.5484 37.2492 34.6383 37.2492 34.7304C37.2513 34.9103 37.2513 35.0924 37.2534 35.2744C37.2555 35.6364 37.2597 36.0004 37.2618 36.3645C37.2744 37.8207 37.2869 39.2769 37.3246 40.6683C37.3288 40.9215 37.3288 41.2228 37.3267 41.5387C37.3246 41.6977 37.3246 41.8588 37.3225 42.022C37.3225 42.1036 37.3204 42.1852 37.3204 42.2647C37.3204 42.3045 37.3204 42.3443 37.3204 42.3861C37.3204 42.4259 37.3183 42.4635 37.3204 42.5116C37.3225 42.6958 37.3476 42.8757 37.3873 43.041C37.4271 43.2063 37.4857 43.359 37.5505 43.4908C37.6823 43.7566 37.8393 43.9407 37.946 44.039C38.0966 44.1855 38.195 44.2378 38.2431 44.2524C38.2933 44.2671 38.2954 44.242 38.2849 44.2064C37.9271 43.9218 37.6635 43.5243 37.5359 43.0849C37.5191 43.0305 37.5066 42.974 37.494 42.9196C37.4836 42.8631 37.4731 42.8067 37.4668 42.7502C37.4585 42.6937 37.4543 42.6372 37.4501 42.5807C37.448 42.5242 37.4459 42.4656 37.4459 42.4154C37.4459 42.2083 37.4438 42.0011 37.4438 41.794C37.4417 40.9654 37.4376 40.1411 37.4355 39.3209C37.4229 38.3145 37.4124 37.3081 37.3999 36.3017C37.3936 35.7975 37.3852 35.2953 37.379 34.7911L37.3727 34.4145C37.3706 34.2722 37.3811 34.1278 37.4062 33.9876C37.4543 33.7052 37.5547 33.4311 37.7033 33.1842C37.561 33.4269 37.4606 33.6968 37.4124 33.973C37.3873 34.1111 37.3769 34.2533 37.379 34.3935C37.3811 34.5191 37.3832 34.6446 37.3852 34.768C37.3936 35.266 37.402 35.7682 37.4083 36.2703C37.4208 37.2788 37.4292 38.2957 37.4334 39.3209C37.4417 40.139 37.4501 40.9592 37.4585 41.7772L37.4647 42.3924V42.4698L37.4668 42.5535C37.4668 42.5807 37.471 42.61 37.4731 42.6372C37.4752 42.6644 37.4773 42.6937 37.4815 42.7209C37.494 42.8318 37.5171 42.9406 37.5463 43.0473C37.6656 43.4762 37.9188 43.8633 38.2598 44.1457C38.2347 44.0746 38.2201 44.0076 38.3205 44.0453C38.3205 44.0453 38.3268 44.0516 38.3372 44.0599C38.3435 44.0641 38.3498 44.0704 38.3582 44.0767C38.3665 44.083 38.3749 44.0913 38.3854 44.0976C38.4272 44.1311 38.4837 44.175 38.5527 44.219C38.5695 44.2294 38.5862 44.242 38.6051 44.2524C38.6239 44.2629 38.6427 44.2734 38.6595 44.2838C38.6971 44.3068 38.7369 44.3236 38.7724 44.3445C38.8101 44.3633 38.8478 44.3801 38.8854 44.3947C38.921 44.4094 38.9545 44.424 38.9859 44.4324C39.1114 44.4658 39.2202 44.4784 39.3102 44.4805C39.3332 44.4805 39.3541 44.4826 39.375 44.4826C39.3959 44.4826 39.4148 44.4805 39.4336 44.4805C39.4524 44.4784 39.4692 44.4784 39.4838 44.4763C39.5006 44.4742 39.5152 44.4721 39.5278 44.47C39.5822 44.4617 39.6219 44.447 39.647 44.4345C39.6721 44.4219 39.6826 44.4073 39.6826 44.3926C39.6826 44.3633 39.6386 44.3361 39.5675 44.3047C39.4985 44.2734 39.4022 44.2357 39.3018 44.1897C39.2118 44.1394 39.0988 44.0809 38.9859 44.0055Z" fill="#2F9690"/>
</svg>
